<svg xmlns="http://www.w3.org/2000/svg" version="1.0" preserveAspectRatio="xMidYMid meet" viewBox="537.6 558.43 924.8 924.97">

<g transform="translate(0.000000,2000.000000) scale(0.100000,-0.100000)" fill="#dabb6e" stroke="none">
<path d="M9680 14410 c-847 -66 -1635 -343 -2316 -817 -916 -636 -1584 -1599 -1853 -2671 -99 -394 -135 -698 -135 -1132 0 -434 33 -714 130 -1109 436 -1774 1899 -3140 3697 -3451 314 -54 441 -64 797 -64 244 0 363 4 475 17 585 68 1087 215 1584 463 1321 659 2250 1903 2501 3349 53 308 64 440 64 790 0 350 -11 489 -64 799 -180 1050 -733 2020 -1552 2722 -717 614 -1578 984 -2533 1090 -167 18 -633 26 -795 14z m730 -606 c798 -80 1540 -394 2177 -918 59 -49 182 -164 273 -255 241 -242 437 -493 602 -771 544 -912 708 -1981 462 -3010 -228 -955 -806 -1800 -1622 -2373 -718 -504 -1634 -767 -2499 -717 -593 34 -1082 162 -1593 416 -416 208 -732 435 -1060 764 -249 249 -444 497 -612 780 -496 831 -676 1786 -517 2745 148 893 624 1746 1309 2348 854 750 1954 1104 3080 991z"/>
<path d="M10081 12119 c-279 -55 -526 -259 -629 -519 -54 -138 -55 -148 -60 -577 l-3 -403 -220 0 c-206 0 -220 -1 -239 -20 -19 -19 -20 -33 -20 -383 0 -312 2 -366 16 -385 15 -22 19 -22 240 -22 l224 0 0 -1158 c0 -1031 2 -1160 16 -1180 l15 -22 448 0 c421 0 449 1 464 18 16 17 17 113 17 1180 l0 1162 320 0 320 0 14 23 c10 15 22 116 40 332 15 171 29 333 32 361 5 44 3 55 -15 73 -21 21 -29 21 -366 21 l-345 0 0 258 c0 148 5 273 11 295 13 49 63 105 114 128 35 16 70 19 308 19 254 0 268 1 287 20 19 19 20 33 20 383 0 312 -2 366 -16 385 l-15 22 -467 -1 c-257 -1 -487 -5 -511 -10z"/>
</g>
</svg>