<svg xmlns="http://www.w3.org/2000/svg" version="1.0" preserveAspectRatio="xMidYMid meet" viewBox="537.42 537.29 924.44 924.58">

<g transform="translate(0.000000,2000.000000) scale(0.100000,-0.100000)" fill="#dabb6e" stroke="none">
<path d="M9705 14624 c-445 -37 -780 -102 -1158 -228 -599 -198 -1130 -503 -1607 -922 -115 -101 -351 -338 -446 -449 -614 -712 -987 -1569 -1101 -2530 -25 -213 -25 -767 0 -980 67 -559 203 -1034 436 -1520 304 -633 766 -1205 1326 -1642 635 -495 1405 -822 2196 -932 252 -35 422 -44 737 -38 452 8 779 55 1188 173 1185 340 2201 1159 2794 2253 279 514 452 1066 526 1671 22 181 30 682 15 877 -48 606 -202 1161 -471 1702 -371 745 -913 1355 -1611 1814 -614 404 -1284 645 -2039 733 -129 15 -669 27 -785 18z m535 -594 c1597 -101 2982 -1127 3539 -2624 246 -660 314 -1408 191 -2106 -224 -1269 -1060 -2370 -2224 -2931 -714 -343 -1488 -466 -2291 -363 -1463 188 -2741 1219 -3251 2622 -420 1158 -286 2452 364 3498 324 522 784 981 1306 1306 708 440 1538 650 2366 598z"/>
<path d="M8220 12577 c-370 -126 -477 -573 -203 -846 159 -159 395 -196 594 -96 60 31 158 122 198 184 184 286 29 679 -303 767 -80 22 -209 18 -286 -9z"/>
<path d="M10883 11245 c-262 -47 -490 -192 -622 -395 l-36 -55 -3 198 -2 197 -425 0 -425 0 0 -1420 0 -1420 445 0 444 0 4 828 c3 716 5 836 19 892 52 209 136 318 297 382 49 20 75 22 201 23 139 0 148 -1 208 -29 83 -39 160 -121 196 -210 58 -145 58 -157 63 -1058 l5 -828 439 0 439 0 0 859 c0 879 -5 1028 -40 1227 -88 497 -349 756 -820 814 -112 13 -298 11 -387 -5z"/>
<path d="M7930 9770 l0 -1420 445 0 445 0 0 1420 0 1420 -445 0 -445 0 0 -1420z"/>
</g>
</svg>